<?xml version="1.0" standalone="no"?><!DOCTYPE svg PUBLIC "-//W3C//DTD SVG 1.1//EN" "http://www.w3.org/Graphics/SVG/1.1/DTD/svg11.dtd"><svg t="1605864130411" class="icon" viewBox="0 0 1024 1024" version="1.1" xmlns="http://www.w3.org/2000/svg" p-id="53503" xmlns:xlink="http://www.w3.org/1999/xlink" width="200" height="200"><defs><style type="text/css"></style></defs><path d="M927.2 990.4H20c-8.8 0-16-7.2-16-16V225.6c0-8.8 7.2-16 16-16h907.2c8.8 0 16 7.2 16 16v748.8c0 8.8-7.2 16-16 16z m-891.2-32h875.2V241.6H36v716.8z" p-id="53504" fill="#ffffff"></path><path d="M844.8 448.8H87.2c-4.8 0-8-3.2-8-8V284.8c0-4.8 3.2-8 8-8h757.6c4.8 0 8 3.2 8 8v156c0 4-3.2 8-8 8z m-749.6-16h741.6V292.8H95.2v140zM318.4 936C196 936 96 836 96 713.6s100-223.2 223.2-223.2 223.2 100 223.2 223.2-100.8 222.4-224 222.4z m0-429.6C204.8 506.4 112 599.2 112 713.6c0 114.4 92.8 207.2 207.2 207.2 114.4 0 207.2-92.8 207.2-207.2-0.8-114.4-93.6-207.2-208-207.2z" p-id="53505" fill="#ffffff"></path><path d="M318.4 805.6c-50.4 0-92-41.6-92-92s41.6-92 92-92 92 41.6 92 92-40.8 92-92 92z m0-168c-41.6 0-76 34.4-76 76s34.4 76 76 76 76-34.4 76-76-33.6-76-76-76zM1004 439.2h-76.8c-8.8 0-16-7.2-16-16V302.4c0-8.8 7.2-16 16-16h76.8c8.8 0 16 7.2 16 16v120.8c0 8.8-7.2 16-16 16z m-60.8-32h44.8V318.4h-44.8v88.8zM865.6 241.6c-8.8 0-16-7.2-16-16v-45.6L133.6 65.6c-8-1.6-14.4-9.6-12.8-18.4 1.6-8.8 9.6-14.4 18.4-13.6l728.8 116.8c8 1.6 13.6 8 13.6 16v59.2c0 8.8-7.2 16-16 16zM844.8 544.8h-224c-4.8 0-8-3.2-8-8s3.2-8 8-8h224c4.8 0 8 3.2 8 8s-3.2 8-8 8zM844.8 632.8h-224c-4.8 0-8-3.2-8-8s3.2-8 8-8h224c4.8 0 8 3.2 8 8s-3.2 8-8 8zM844.8 721.6h-224c-4.8 0-8-3.2-8-8s3.2-8 8-8h224c4.8 0 8 3.2 8 8s-3.2 8-8 8zM844.8 809.6h-224c-4.8 0-8-3.2-8-8s3.2-8 8-8h224c4.8 0 8 3.2 8 8s-3.2 8-8 8zM844.8 898.4h-224c-4.8 0-8-3.2-8-8s3.2-8 8-8h224c4.8 0 8 3.2 8 8s-3.2 8-8 8zM359.2 448.8c-4.8 0-8-3.2-8-8V284.8c0-4.8 3.2-8 8-8s8 3.2 8 8v156c0 4-3.2 8-8 8z" p-id="53506" fill="#ffffff"></path></svg>