<?xml version="1.0" standalone="no"?><!DOCTYPE svg PUBLIC "-//W3C//DTD SVG 1.1//EN" "http://www.w3.org/Graphics/SVG/1.1/DTD/svg11.dtd"><svg t="1605863668097" class="icon" viewBox="0 0 1024 1024" version="1.1" xmlns="http://www.w3.org/2000/svg" p-id="53336" xmlns:xlink="http://www.w3.org/1999/xlink" width="200" height="200"><defs><style type="text/css"></style></defs><path d="M203.2 741.6c-1.6 0-4 0-5.6-0.8-8-3.2-12-12.8-8.8-20.8l46.4-116c3.2-8 12.8-12 20.8-8.8 8 3.2 12 12.8 8.8 20.8l-46.4 116c-2.4 5.6-8.8 9.6-15.2 9.6zM393.6 741.6c-1.6 0-4 0-5.6-0.8-8-3.2-12-12.8-8.8-20.8l46.4-116c3.2-8 12.8-12 20.8-8.8 8 3.2 12 12.8 8.8 20.8l-46.4 116c-3.2 5.6-8.8 9.6-15.2 9.6zM584 741.6c-1.6 0-4 0-5.6-0.8-8-3.2-12-12.8-8.8-20.8L616 604c3.2-8 12.8-12 20.8-8.8 8 3.2 12 12.8 8.8 20.8l-46.4 116c-3.2 5.6-8.8 9.6-15.2 9.6zM774.4 741.6c-1.6 0-4 0-5.6-0.8-8-3.2-12-12.8-8.8-20.8l46.4-116c3.2-8 12.8-12 20.8-8.8 8 3.2 12 12.8 8.8 20.8l-46.4 116c-3.2 5.6-8.8 9.6-15.2 9.6zM874.4 556H149.6C68.8 556 4 495.2 4 420.8c0-57.6 38.4-107.2 95.2-127.2-4-13.6-6.4-28-6.4-42.4 0-88.8 77.6-160.8 172.8-160.8 33.6 0 65.6 8.8 93.6 25.6C411.2 45.6 496 4 588.8 4c153.6 0 279.2 116 279.2 258.4 0 7.2 0 14.4-0.8 21.6 83.2-3.2 152 58.4 152 135.2 0.8 75.2-64.8 136.8-144.8 136.8zM265.6 122.4c-77.6 0-140.8 57.6-140.8 128.8 0 16 3.2 31.2 9.6 46.4 1.6 4 1.6 9.6-0.8 13.6-2.4 4-6.4 7.2-11.2 8C72 330.4 36 372 36 420c0 56.8 51.2 103.2 113.6 103.2h724c62.4 0 113.6-46.4 113.6-103.2s-51.2-103.2-113.6-103.2c-7.2 0-14.4 0.8-22.4 2.4-4.8 0.8-10.4-0.8-14.4-4.8s-5.6-8.8-4.8-14.4c2.4-12 3.2-24.8 3.2-36.8 0-124.8-111.2-226.4-247.2-226.4-86.4 0-168 42.4-212 110.4-2.4 4-6.4 6.4-10.4 7.2-4 0.8-8.8 0-12-3.2-24.8-19.2-55.2-28.8-88-28.8z" p-id="53337" fill="#ffffff"></path><path d="M786.4 299.2h-1.6c-4-0.8-7.2-4.8-6.4-9.6 1.6-8.8 2.4-18.4 2.4-27.2 0-94.4-85.6-170.4-191.2-170.4-68 0-131.2 32.8-165.6 84.8-2.4 4-7.2 4.8-11.2 2.4-4-2.4-4.8-7.2-2.4-11.2C448 112 516.8 76.8 589.6 76.8 704 76.8 796.8 160 796.8 263.2c0 9.6-0.8 20-2.4 29.6-0.8 4-4 6.4-8 6.4zM635.2 1019.2c-36 0-64.8-29.6-64.8-64.8 0-8.8 7.2-16 16-16s16 7.2 16 16c0 18.4 15.2 32.8 32.8 32.8 18.4 0 32.8-15.2 32.8-32.8 0-18.4-15.2-32.8-32.8-32.8H286.4c-8.8 0-16-7.2-16-16s7.2-16 16-16h348.8c36 0 64.8 29.6 64.8 64.8s-28.8 64.8-64.8 64.8z" p-id="53338" fill="#ffffff"></path><path d="M802.4 921.6c-36 0-64.8-29.6-64.8-64.8 0-8.8 7.2-16 16-16s16 7.2 16 16c0 18.4 15.2 32.8 32.8 32.8 18.4 0 32.8-15.2 32.8-32.8 0-18.4-15.2-32.8-32.8-32.8H286.4c-8.8 0-16-7.2-16-16s7.2-16 16-16h516c36 0 64.8 29.6 64.8 64.8s-28.8 64.8-64.8 64.8z" p-id="53339" fill="#ffffff"></path></svg>