<svg t="1605863460911" class="icon" viewBox="0 0 1024 1024" version="1.1" xmlns="http://www.w3.org/2000/svg" p-id="53167" width="200" height="200"><path d="M1004 392.8H20c-7.2 0-12.8-4.8-15.2-11.2-2.4-6.4 0-13.6 6.4-17.6L503.2 23.2c5.6-4 12.8-4 18.4 0l492 340.8c5.6 4 8 11.2 6.4 17.6-2.4 7.2-8.8 11.2-16 11.2zM70.4 361.6h882.4L512 55.2 70.4 361.6z" p-id="53168" fill="#ffffff"></path><path d="M800.8 321.6H223.2c-3.2 0-6.4-2.4-7.2-5.6-0.8-3.2 0-7.2 3.2-8.8l288.8-200.8c2.4-1.6 6.4-1.6 8.8 0l288.8 200.8c3.2 1.6 4 5.6 3.2 8.8-0.8 3.2-4 5.6-8 5.6z m-552.8-16h528L512 123.2 248 305.6zM573.6 892.8H450.4c-8.8 0-16-7.2-16-16V377.6c0-8.8 7.2-16 16-16h122.4c8.8 0 16 7.2 16 16v500c0.8 8-6.4 15.2-15.2 15.2z m-107.2-31.2h91.2V392.8H466.4v468.8z" p-id="53169" fill="#ffffff"></path><path d="M526.4 845.6c-4 0-8-3.2-8-8V416.8c0-4 3.2-8 8-8 4 0 8 3.2 8 8v420.8c0 4-3.2 8-8 8zM255.2 892.8H132.8c-8.8 0-16-7.2-16-16V377.6c0-8.8 7.2-16 16-16h122.4c8.8 0 16 7.2 16 16v500c0 8-7.2 15.2-16 15.2z m-106.4-31.2H240V392.8H148.8v468.8z" p-id="53170" fill="#ffffff"></path><path d="M208.8 845.6c-4 0-8-3.2-8-8V416.8c0-4 3.2-8 8-8 4 0 8 3.2 8 8v420.8c0 4-4 8-8 8zM891.2 892.8H768.8c-8.8 0-16-7.2-16-16V377.6c0-8.8 7.2-16 16-16h122.4c8.8 0 16 7.2 16 16v500c0 8-7.2 15.2-16 15.2zM784 861.6h91.2V392.8H784v468.8z" p-id="53171" fill="#ffffff"></path><path d="M844.8 845.6c-4 0-8-3.2-8-8V416.8c0-4 3.2-8 8-8 4 0 8 3.2 8 8v420.8c-0.8 4-4 8-8 8zM972 1004H52c-8.8 0-16-7.2-16-16v-110.4c0-8.8 7.2-16 16-16h920.8c8.8 0 16 7.2 16 16v110.4c-0.8 8.8-8 16-16.8 16z m-904-32h888.8v-79.2H68v79.2zM512 281.6c-28.8 0-52-23.2-52-52s23.2-52 52-52 52 23.2 52 52-23.2 52-52 52z m0-88c-20 0-36 16-36 36s16 36 36 36 36-16 36-36-16-36-36-36z" p-id="53172" fill="#ffffff"></path></svg>