<svg t="1607060214436" class="icon" viewBox="0 0 1024 1024" version="1.1" xmlns="http://www.w3.org/2000/svg" p-id="2137" width="200" height="200"><path d="M535.9 214.2c89.7-87.4 235.2-87.4 324.8 0 87.4 84.2 90 223.3 5.8 310.6-1.8 1.9-3.7 3.7-5.5 5.5L513 874.9l-36.5-36.1-311-307.8c-87.6-84.1-90.3-223.3-6.2-310.9 1.9-2 3.9-4 5.9-5.9 89.7-87.4 235.2-87.4 324.8 0l22.9 22.3 23-22.3zM815.8 453c52.7-51.4 52.7-133.3 0-184.7-55.4-53-142.6-53-198 0L513 370.4l-79.7-77.6-25.2-24.5c-55.4-53-142.6-53-198 0-52.7 51.4-52.7 133.4 0.6 185.3L513 752.8 815.8 453z" p-id="2138" fill="#ffffff"></path></svg>