<?xml version="1.0" standalone="no"?><!DOCTYPE svg PUBLIC "-//W3C//DTD SVG 1.1//EN" "http://www.w3.org/Graphics/SVG/1.1/DTD/svg11.dtd"><svg t="1606714889629" class="icon" viewBox="0 0 1024 1024" version="1.1" xmlns="http://www.w3.org/2000/svg" p-id="1465" xmlns:xlink="http://www.w3.org/1999/xlink" width="200" height="200"><defs><style type="text/css"></style></defs><path d="M512.1 512m-448.09 0a448.09 448.09 0 1 0 896.18 0 448.09 448.09 0 1 0-896.18 0Z" fill="#6AC644" p-id="1466"></path><path d="M736.14 174.33m-15.9 0a15.9 15.9 0 1 0 31.8 0 15.9 15.9 0 1 0-31.8 0Z" fill="#FFFFFF" p-id="1467"></path><path d="M416.08 148.55m-15.9 0a15.9 15.9 0 1 0 31.8 0 15.9 15.9 0 1 0-31.8 0Z" fill="#FFFFFF" p-id="1468"></path><path d="M795.84 639.78m-23.31 0a23.31 23.31 0 1 0 46.62 0 23.31 23.31 0 1 0-46.62 0Z" fill="#00F4FF" p-id="1469"></path><path d="M219 311.48m-23.31 0a23.31 23.31 0 1 0 46.62 0 23.31 23.31 0 1 0-46.62 0Z" fill="#FDFFA0" p-id="1470"></path><path d="M208.61 651.2m-11.24 0a11.24 11.24 0 1 0 22.48 0 11.24 11.24 0 1 0-22.48 0Z" fill="#FFFFFF" p-id="1471"></path><path d="M179.28 286.98l-3.61-2.5-4.39-0.17 2.5-3.61 0.16-4.39 3.61 2.51 4.39 0.16-2.5 3.61zM129.94 511.8l-3.61-2.51-4.39-0.16 2.51-3.61 0.16-4.39 3.61 2.51 4.39 0.16-2.51 3.61zM871.88 491.44l-10.44-7.24-12.69-0.47 7.24-10.43 0.47-12.7 10.43 7.24 12.7 0.47-7.24 10.44zM205.08 463.63l-10.44-7.24-12.7-0.47 7.25-10.44 0.46-12.69 10.44 7.24 12.7 0.47-7.25 10.43zM509.2 857.45a62.204 62.204 0 0 1-53.96-31.25l-24.54-42.78a61.92 61.92 0 0 1-8.08-26.76l-8.53-130.03c-0.5-7.65 5.57-14.13 13.23-14.13h163.75c7.66 0 13.73 6.48 13.23 14.13l-8.53 130.03a61.92 61.92 0 0 1-8.08 26.76l-24.54 42.78a62.209 62.209 0 0 1-53.95 31.25z" fill="#FFFFFF" p-id="1472"></path><path d="M509.2 864.95c-24.9 0-48.07-13.42-60.46-35.02l-24.54-42.78a69.783 69.783 0 0 1-9.06-30l-8.53-130.03a20.852 20.852 0 0 1 5.56-15.55c3.91-4.17 9.43-6.57 15.15-6.57h163.75c5.72 0 11.24 2.39 15.15 6.57 3.91 4.17 5.94 9.84 5.56 15.55l-8.53 130.03a69.783 69.783 0 0 1-9.06 30l-24.54 42.78c-12.38 21.6-35.55 35.02-60.45 35.02zM427.33 620c-1.61 0-3.1 0.65-4.2 1.82a5.678 5.678 0 0 0-1.54 4.31l8.53 130.03c0.54 8.23 2.99 16.36 7.1 23.52l24.54 42.78c9.73 16.95 27.91 27.49 47.45 27.49s37.73-10.53 47.45-27.49l24.54-42.78a54.78 54.78 0 0 0 7.1-23.52l8.53-130.03c0.11-1.61-0.44-3.14-1.54-4.31s-2.59-1.82-4.2-1.82H427.33z" fill="#333333" p-id="1473"></path><path d="M512.1 452.04m-192 0a192 192 0 1 0 384 0 192 192 0 1 0-384 0Z" fill="#FFFFFF" p-id="1474"></path><path d="M512.1 651.54c-110 0-199.5-89.5-199.5-199.5s89.5-199.5 199.5-199.5 199.5 89.5 199.5 199.5c0 110.01-89.5 199.5-199.5 199.5z m0-384c-101.73 0-184.5 82.77-184.5 184.5s82.77 184.5 184.5 184.5 184.5-82.77 184.5-184.5-82.77-184.5-184.5-184.5z" fill="#333333" p-id="1475"></path><path d="M696.97 449.68c0.33 1.91 0.49 3.86 0.46 5.8-1.56 100.55-83.56 181.58-184.48 181.58-97.47 0-177.28-75.57-184.04-171.32-0.61-8.66 2.1-17.24 7.69-23.89 52.67-62.65 107.26-6.16 171.49-83.07 64.97-77.78 158.99-84.81 188.88 90.9z" fill="#FDFFA0" p-id="1476"></path><path d="M424.77 760.42h167.86v15.07H424.77zM422.942 744.016l174.483-30.52 2.597 14.843-174.483 30.521zM422.942 710.048l174.483-30.521 2.596 14.844-174.483 30.52zM422.942 677.64l174.483-30.522 2.597 14.844-174.483 30.521zM520.67 174.08v51.64c0 4.16-3.37 7.53-7.53 7.53s-7.53-3.37-7.53-7.53v-51.64c0-4.16 3.37-7.53 7.53-7.53 4.16-0.01 7.53 3.37 7.53 7.53zM372.28 214.37l36.52 36.52a7.532 7.532 0 0 1 0 10.65 7.532 7.532 0 0 1-10.65 0l-36.52-36.52a7.532 7.532 0 0 1 0-10.65 7.532 7.532 0 0 1 10.65 0zM664.84 225.29l-36.52 36.52a7.532 7.532 0 0 1-10.65 0 7.532 7.532 0 0 1 0-10.65l36.52-36.52a7.532 7.532 0 0 1 10.65 0c2.95 2.93 2.95 7.7 0 10.65z" fill="#333333" p-id="1477"></path><path d="M389.25 388.43c0 7.58-4.15 13.72-9.27 13.72s-7.84-0.83-9.27-13.72c0-7.58 7.01-18.31 9.27-13.72 4.49 9.11 9.27 6.14 9.27 13.72zM422.37 352.08c-5.36-5.36-6.77-12.64-3.15-16.26s6.13-4.96 16.26 3.15c5.36 5.36 8 17.9 3.15 16.26-9.62-3.27-10.9 2.2-16.26-3.15z" fill="#FDFFA0" p-id="1478"></path><path d="M586.81 600.49c-2.65 0-5.23-1.41-6.59-3.91a7.496 7.496 0 0 1 2.99-10.18c20.19-11.03 37.74-26.82 50.76-45.68 17.82-25.81 23.63-51.85 25.38-69.16a7.485 7.485 0 0 1 8.21-6.71c4.12 0.42 7.13 4.09 6.71 8.21-1.92 19.06-8.33 47.74-27.96 76.18-14.34 20.77-33.67 38.18-55.91 50.32-1.14 0.63-2.38 0.93-3.59 0.93z" fill="#333333" p-id="1479"></path><path d="M557.32 735.83l32.64-5.71-2.07 30.3H512z" fill="#00F4FF" p-id="1480"></path></svg>