<?xml version="1.0" standalone="no"?><!DOCTYPE svg PUBLIC "-//W3C//DTD SVG 1.1//EN" "http://www.w3.org/Graphics/SVG/1.1/DTD/svg11.dtd"><svg t="1606708305940" class="icon" viewBox="0 0 1024 1024" version="1.1" xmlns="http://www.w3.org/2000/svg" p-id="1311" xmlns:xlink="http://www.w3.org/1999/xlink" width="200" height="200"><defs><style type="text/css"></style></defs><path d="M511.82 511.96m-448.09 0a448.09 448.09 0 1 0 896.18 0 448.09 448.09 0 1 0-896.18 0Z" fill="#FF5C5C" p-id="1312"></path><path d="M736.14 174.33m-15.9 0a15.9 15.9 0 1 0 31.8 0 15.9 15.9 0 1 0-31.8 0Z" fill="#FFFFFF" p-id="1313"></path><path d="M416.08 148.55m-15.9 0a15.9 15.9 0 1 0 31.8 0 15.9 15.9 0 1 0-31.8 0Z" fill="#FFFFFF" p-id="1314"></path><path d="M401.89 884.94m-43.07 0a43.07 43.07 0 1 0 86.14 0 43.07 43.07 0 1 0-86.14 0Z" fill="#FFFFFF" p-id="1315"></path><path d="M766.87 311.48m-23.31 0a23.31 23.31 0 1 0 46.62 0 23.31 23.31 0 1 0-46.62 0Z" fill="#A2EBFF" p-id="1316"></path><path d="M301.75 212.28m-23.31 0a23.31 23.31 0 1 0 46.62 0 23.31 23.31 0 1 0-46.62 0Z" fill="#FFD85E" p-id="1317"></path><path d="M299 703.88m-11.24 0a11.24 11.24 0 1 0 22.48 0 11.24 11.24 0 1 0-22.48 0Z" fill="#FFFFFF" p-id="1318"></path><path d="M179.28 286.98l-3.61-2.5-4.39-0.17 2.5-3.61 0.16-4.39 3.61 2.51 4.39 0.16-2.5 3.61zM129.94 511.8l-3.61-2.51-4.39-0.16 2.51-3.61 0.16-4.39 3.61 2.51 4.39 0.16-2.51 3.61zM871.88 491.44l-10.44-7.24-12.69-0.47 7.24-10.43 0.47-12.7 10.43 7.24 12.7 0.47-7.24 10.44zM205.08 463.63l-10.44-7.24-12.7-0.47 7.25-10.44 0.46-12.69 10.44 7.24 12.7 0.47-7.25 10.43z" fill="#FFFFFF" p-id="1319"></path><path d="M561.96 548.91m-258.28 0a258.28 258.28 0 1 0 516.56 0 258.28 258.28 0 1 0-516.56 0Z" fill="#FFD85E" p-id="1320"></path><path d="M511.72 515.04m-258.28 0a258.28 258.28 0 1 0 516.56 0 258.28 258.28 0 1 0-516.56 0Z" fill="#FFFFFF" p-id="1321"></path><path d="M511.72 780.81c-70.99 0-137.73-27.65-187.93-77.84-50.2-50.2-77.84-116.94-77.84-187.93s27.65-137.73 77.84-187.93c50.2-50.2 116.94-77.84 187.93-77.84 70.99 0 137.73 27.65 187.93 77.84 50.2 50.2 77.84 116.94 77.84 187.93s-27.65 137.74-77.84 187.93-116.94 77.84-187.93 77.84z m0-516.55c-138.28 0-250.78 112.5-250.78 250.78s112.5 250.78 250.78 250.78S762.5 653.32 762.5 515.04 650 264.26 511.72 264.26z" fill="#333333" p-id="1322"></path><path d="M760.97 522.49c0.78 130.57-110.79 237.34-248.09 236.78-97.11-0.4-165.8-27.95-207.6-110.84-29.71-58.91-27.5-128.02 5.71-185.22 45.75-78.8 39.01-113.23 163.85-128.14 13.32-1.59 57.42 3.89 66.75 13.07 188.02 185.06 218.65 51.41 219.38 174.35z" fill="#A2EBFF" p-id="1323"></path><path d="M383.67 448.56m-18.22 0a18.22 18.22 0 1 0 36.44 0 18.22 18.22 0 1 0-36.44 0Z" fill="#333333" p-id="1324"></path><path d="M640.12 451.01m-39.99 0a39.99 39.99 0 1 0 79.98 0 39.99 39.99 0 1 0-79.98 0Z" fill="#333333" p-id="1325"></path><path d="M505.02 690.11c-43.71 0-78.13-14.6-93.44-22.43-3.69-1.89-5.15-6.41-3.26-10.09 1.89-3.69 6.41-5.15 10.09-3.26 18.97 9.71 69.63 30.64 130.08 15.4 79.71-20.09 115.96-87.92 122.41-101.32 1.8-3.73 6.28-5.3 10.01-3.5 3.73 1.8 5.3 6.28 3.5 10.01-3.82 7.93-14.87 28.73-34.79 50.4-27.31 29.7-60.1 49.54-97.46 58.95a192.142 192.142 0 0 1-47.14 5.84z" fill="#333333" p-id="1326"></path><path d="M147.67 584.5c-3 0-5.83-1.81-6.99-4.78-13.44-34.44-32.02-104.11-5.46-183.77 19.11-57.33 53.81-95.8 79.55-117.98 3.14-2.7 7.87-2.35 10.58 0.79s2.35 7.87-0.79 10.58c-24.31 20.95-57.08 57.27-75.11 111.36-25.07 75.18-7.5 141.02 5.21 173.57 1.51 3.86-0.4 8.21-4.26 9.71-0.9 0.36-1.82 0.52-2.73 0.52z" fill="#FFFFFF" p-id="1327"></path></svg>